<?xml version="1.0" encoding="UTF-8"?>
<svg id="uuid-fbf73dc6-86e2-4543-93e4-cd27b18b3ddf" data-name="Layer 1" xmlns="http://www.w3.org/2000/svg" width="210mm" height="92.267mm" viewBox="0 0 595.276 261.543">
  <defs>
    <style>
      .uuid-e569fedb-e8ae-4f98-a449-bee3fd689186, .uuid-b991eefb-bf7e-48fc-94ed-0afa72228a0e, .uuid-1c105d83-a743-4bdf-b34e-929c289752f1 {
        fill: #fff;
      }

      .uuid-e569fedb-e8ae-4f98-a449-bee3fd689186, .uuid-b991eefb-bf7e-48fc-94ed-0afa72228a0e, .uuid-1c105d83-a743-4bdf-b34e-929c289752f1, .uuid-2f476ff5-9b49-4d29-91d7-5e9927423530, .uuid-87845e7d-12cc-4ab3-bec0-46deeeddecaa, .uuid-523e20de-5bbc-45cb-957b-f80bc8ffbde5, .uuid-92d1796c-b9ee-495e-9659-97779c4876f2, .uuid-ddea5f68-4346-4ee3-9208-b5e94a61159d, .uuid-b4671688-74e4-4fe4-b71d-aa781289f718, .uuid-174f589f-9482-458c-98b2-4847df49f671, .uuid-abd1dfed-0dc9-4fd1-aaca-dfce072ad4de, .uuid-bae02472-e26d-48f8-97d5-91a5f359c8a4, .uuid-b8ac3f44-ff5a-4bf3-bba5-68f72beadae8, .uuid-f05dc689-b17d-4d05-9ed7-f327c5aabd72 {
        stroke-linecap: round;
        stroke-linejoin: round;
      }

      .uuid-e569fedb-e8ae-4f98-a449-bee3fd689186, .uuid-b4671688-74e4-4fe4-b71d-aa781289f718 {
        stroke: #5e40be;
      }

      .uuid-b991eefb-bf7e-48fc-94ed-0afa72228a0e, .uuid-92d1796c-b9ee-495e-9659-97779c4876f2 {
        stroke: #06c;
      }

      .uuid-1c105d83-a743-4bdf-b34e-929c289752f1, .uuid-87845e7d-12cc-4ab3-bec0-46deeeddecaa, .uuid-523e20de-5bbc-45cb-957b-f80bc8ffbde5, .uuid-174f589f-9482-458c-98b2-4847df49f671, .uuid-11b6b430-d046-4eea-822c-e85d6ee457a1, .uuid-bae02472-e26d-48f8-97d5-91a5f359c8a4, .uuid-b8ac3f44-ff5a-4bf3-bba5-68f72beadae8, .uuid-f05dc689-b17d-4d05-9ed7-f327c5aabd72 {
        stroke: #000;
      }

      .uuid-2f476ff5-9b49-4d29-91d7-5e9927423530, .uuid-87845e7d-12cc-4ab3-bec0-46deeeddecaa, .uuid-523e20de-5bbc-45cb-957b-f80bc8ffbde5, .uuid-92d1796c-b9ee-495e-9659-97779c4876f2, .uuid-ddea5f68-4346-4ee3-9208-b5e94a61159d, .uuid-b4671688-74e4-4fe4-b71d-aa781289f718, .uuid-174f589f-9482-458c-98b2-4847df49f671, .uuid-11b6b430-d046-4eea-822c-e85d6ee457a1, .uuid-bae02472-e26d-48f8-97d5-91a5f359c8a4, .uuid-b8ac3f44-ff5a-4bf3-bba5-68f72beadae8, .uuid-f05dc689-b17d-4d05-9ed7-f327c5aabd72 {
        fill: none;
      }

      .uuid-2f476ff5-9b49-4d29-91d7-5e9927423530, .uuid-ddea5f68-4346-4ee3-9208-b5e94a61159d {
        stroke: #f7823c;
      }

      .uuid-b2e58eba-2830-451c-9a16-081b03e34a2f {
        fill: #06c;
      }

      .uuid-ab7eaacb-d310-450e-9153-5b174c8580c3 {
        fill: #f7823c;
      }

      .uuid-53f430a3-4897-4d7b-ba23-d689976dfa32 {
        fill: #151515;
      }

      .uuid-b04140e6-148e-473e-a3e3-6c612e1c9a2f {
        fill: #a1c2e7;
      }

      .uuid-be846ec0-0750-48b7-ae84-337f69cae02c {
        fill: #5e40be;
      }

      .uuid-87845e7d-12cc-4ab3-bec0-46deeeddecaa {
        stroke-dasharray: 0 0 0 3.98;
      }

      .uuid-87845e7d-12cc-4ab3-bec0-46deeeddecaa, .uuid-523e20de-5bbc-45cb-957b-f80bc8ffbde5, .uuid-92d1796c-b9ee-495e-9659-97779c4876f2, .uuid-ddea5f68-4346-4ee3-9208-b5e94a61159d, .uuid-b4671688-74e4-4fe4-b71d-aa781289f718, .uuid-174f589f-9482-458c-98b2-4847df49f671, .uuid-bae02472-e26d-48f8-97d5-91a5f359c8a4, .uuid-b8ac3f44-ff5a-4bf3-bba5-68f72beadae8 {
        stroke-width: 2px;
      }

      .uuid-489b1c93-3a94-403a-8933-f7f3db86e54d {
        stroke-width: .25px;
      }

      .uuid-489b1c93-3a94-403a-8933-f7f3db86e54d, .uuid-f2c8815f-6613-4d46-bfcd-f41a26e502cd {
        stroke: #fff;
      }

      .uuid-489b1c93-3a94-403a-8933-f7f3db86e54d, .uuid-f2c8815f-6613-4d46-bfcd-f41a26e502cd, .uuid-11b6b430-d046-4eea-822c-e85d6ee457a1 {
        stroke-miterlimit: 10;
      }

      .uuid-174f589f-9482-458c-98b2-4847df49f671 {
        stroke-dasharray: 0 0 0 5.609;
      }

      .uuid-f2c8815f-6613-4d46-bfcd-f41a26e502cd {
        stroke-width: .5px;
      }

      .uuid-abd1dfed-0dc9-4fd1-aaca-dfce072ad4de {
        fill: #f2f7e6;
        stroke: #c0d682;
        stroke-dasharray: 0 3;
      }

      .uuid-bae02472-e26d-48f8-97d5-91a5f359c8a4 {
        stroke-dasharray: 0 0 0 4.207;
      }

      .uuid-b8ac3f44-ff5a-4bf3-bba5-68f72beadae8 {
        stroke-dasharray: 0 0 0 4.865;
      }

      .uuid-f05dc689-b17d-4d05-9ed7-f327c5aabd72 {
        stroke-width: 1.5px;
      }
    </style>
  </defs>
  <line class="uuid-ddea5f68-4346-4ee3-9208-b5e94a61159d" x1="39.706" y1="175.841" x2="207.073" y2="175.841"/>
  <line class="uuid-2f476ff5-9b49-4d29-91d7-5e9927423530" x1="136.337" y1="147.362" x2="136.337" y2="175.858"/>
  <rect class="uuid-abd1dfed-0dc9-4fd1-aaca-dfce072ad4de" x="352.908" y="37.169" width="169.456" height="116.231"/>
  <g>
    <path class="uuid-53f430a3-4897-4d7b-ba23-d689976dfa32" d="M34.379,48.076h1.099l.936,4.618,1.351-4.618h1.026l1.35,4.609,.937-4.609h1.062l-1.377,6.302h-1.125l-1.377-4.762-1.377,4.762h-1.125l-1.377-6.302Z"/>
    <path class="uuid-53f430a3-4897-4d7b-ba23-d689976dfa32" d="M42.893,52.127c0-1.333,.972-2.332,2.269-2.332,1.287,0,2.26,1,2.26,2.332s-.973,2.332-2.26,2.332c-1.296,0-2.269-1-2.269-2.332Zm3.529,0c0-.837-.531-1.468-1.26-1.468-.738,0-1.27,.63-1.27,1.468,0,.846,.531,1.467,1.27,1.467,.729,0,1.26-.621,1.26-1.467Z"/>
    <path class="uuid-53f430a3-4897-4d7b-ba23-d689976dfa32" d="M48.474,49.867h1.017v.972c.252-.684,.684-1.053,1.242-1.053,.171,.009,.288,.027,.441,.09v.892c-.162-.063-.369-.108-.558-.108-.495,0-.9,.279-1.125,.748v2.971h-1.017v-4.51Z"/>
    <path class="uuid-53f430a3-4897-4d7b-ba23-d689976dfa32" d="M52.01,47.904l1.017-.171v4.051l1.873-1.917h1.17l-2.08,2.088,2.188,2.422h-1.296l-1.854-2.08v2.08h-1.017v-6.473Z"/>
    <path class="uuid-53f430a3-4897-4d7b-ba23-d689976dfa32" d="M56.474,53.856l.477-.675c.594,.369,.99,.513,1.45,.513,.54,0,.909-.252,.909-.612,0-.279-.189-.423-.63-.513l-.792-.135c-.882-.162-1.306-.567-1.306-1.242,0-.846,.693-1.396,1.747-1.396,.63,0,1.197,.18,1.773,.541l-.477,.675c-.459-.297-.9-.432-1.359-.432-.468,0-.774,.198-.774,.522,0,.288,.162,.414,.63,.495l.801,.153c.9,.162,1.333,.576,1.333,1.251,0,.828-.792,1.467-1.846,1.467-.774,0-1.458-.216-1.936-.612Z"/>
    <path class="uuid-53f430a3-4897-4d7b-ba23-d689976dfa32" d="M61.748,53.207v-2.53h-.9v-.81h.9v-1.243l1.017-.216v1.458h1.251v.81h-1.251v2.305c0,.441,.171,.612,.63,.612,.198,0,.342-.027,.612-.108v.855c-.261,.081-.604,.126-.874,.126-.909,0-1.386-.432-1.386-1.26Z"/>
    <path class="uuid-53f430a3-4897-4d7b-ba23-d689976dfa32" d="M64.682,53.081c0-.81,.667-1.323,1.729-1.323,.423,0,.819,.09,1.215,.288v-.504c0-.594-.342-.9-1.035-.9-.378,0-.792,.108-1.314,.351l-.36-.738c.675-.306,1.269-.459,1.873-.459,1.179,0,1.845,.594,1.845,1.639v2.944h-1.008v-.468c-.387,.378-.819,.549-1.341,.549-.945,0-1.603-.567-1.603-1.377Zm1.882,.657c.405,0,.756-.117,1.062-.378v-.729c-.324-.153-.648-.216-1.035-.216-.585,0-.954,.243-.954,.648,0,.414,.36,.675,.927,.675Z"/>
    <path class="uuid-53f430a3-4897-4d7b-ba23-d689976dfa32" d="M70.424,53.207v-2.53h-.9v-.81h.9v-1.243l1.017-.216v1.458h1.251v.81h-1.251v2.305c0,.441,.171,.612,.63,.612,.198,0,.342-.027,.612-.108v.855c-.261,.081-.604,.126-.874,.126-.909,0-1.386-.432-1.386-1.26Z"/>
    <path class="uuid-53f430a3-4897-4d7b-ba23-d689976dfa32" d="M73.466,48.328c0-.342,.279-.63,.63-.63,.342,0,.63,.288,.63,.63s-.288,.621-.63,.621c-.351,0-.63-.279-.63-.621Zm.117,1.54h1.018v4.51h-1.018v-4.51Z"/>
    <path class="uuid-53f430a3-4897-4d7b-ba23-d689976dfa32" d="M75.653,52.127c0-1.333,.972-2.332,2.269-2.332,1.287,0,2.26,1,2.26,2.332s-.973,2.332-2.26,2.332c-1.296,0-2.269-1-2.269-2.332Zm3.529,0c0-.837-.531-1.468-1.26-1.468-.738,0-1.27,.63-1.27,1.468,0,.846,.531,1.467,1.27,1.467,.729,0,1.26-.621,1.26-1.467Z"/>
    <path class="uuid-53f430a3-4897-4d7b-ba23-d689976dfa32" d="M81.233,49.867h1.017v.738c.342-.531,.837-.811,1.422-.811,.927,0,1.576,.657,1.576,1.612v2.971h-1.026v-2.683c0-.657-.387-1.081-.99-1.081-.414,0-.748,.189-.981,.549v3.214h-1.017v-4.51Z"/>
  </g>
  <g>
    <path class="uuid-489b1c93-3a94-403a-8933-f7f3db86e54d" d="M80.775,41.322H39.111c-.575,0-1.042,.466-1.042,1.042s.466,1.042,1.042,1.042h41.665c.575,0,1.042-.466,1.042-1.042s-.466-1.042-1.042-1.042Z"/>
    <path class="uuid-489b1c93-3a94-403a-8933-f7f3db86e54d" d="M43.277,39.211h33.332c.572-.007,1.034-.469,1.042-1.042V15.948c-.007-.572-.469-1.034-1.042-1.042h-12.499c-.575,0-1.042,.466-1.042,1.042s.466,1.042,1.042,1.042h11.458v20.138h-31.249V16.99h11.458c.575,0,1.042-.466,1.042-1.042s-.466-1.042-1.042-1.042h-12.499c-.575,0-1.042,.466-1.042,1.042v22.221c0,.575,.466,1.042,1.042,1.042Z"/>
    <path class="uuid-f2c8815f-6613-4d46-bfcd-f41a26e502cd" d="M59.208,16.684c.195,.195,.46,.305,.736,.306,.276-.003,.539-.113,.736-.306,.406-.407,.406-1.065,0-1.472-.413-.392-1.06-.392-1.472,0-.099,.092-.175,.207-.222,.333-.111,.257-.111,.549,0,.806,.047,.127,.123,.241,.222,.333Z"/>
  </g>
  <line class="uuid-b991eefb-bf7e-48fc-94ed-0afa72228a0e" x1="136.337" y1="74.518" x2="136.337" y2="110.694"/>
  <line class="uuid-b991eefb-bf7e-48fc-94ed-0afa72228a0e" x1="59.943" y1="57.203" x2="59.943" y2="74.263"/>
  <line class="uuid-b991eefb-bf7e-48fc-94ed-0afa72228a0e" x1="281.922" y1="74.518" x2="281.922" y2="110.694"/>
  <line class="uuid-e569fedb-e8ae-4f98-a449-bee3fd689186" x1="281.922" y1="147.362" x2="281.922" y2="175.843"/>
  <line class="uuid-e569fedb-e8ae-4f98-a449-bee3fd689186" x1="477.25" y1="147.362" x2="477.25" y2="175.843"/>
  <line class="uuid-2f476ff5-9b49-4d29-91d7-5e9927423530" x1="169.929" y1="175.858" x2="169.929" y2="208.24"/>
  <line class="uuid-92d1796c-b9ee-495e-9659-97779c4876f2" x1="39.706" y1="74.39" x2="331.723" y2="74.39"/>
  <line class="uuid-b4671688-74e4-4fe4-b71d-aa781289f718" x1="239.535" y1="175.841" x2="561.229" y2="175.841"/>
  <g>
    <g>
      <path class="uuid-53f430a3-4897-4d7b-ba23-d689976dfa32" d="M121.285,135.873l1.017-.171v2.692c.315-.396,.819-.639,1.386-.639,1.144,0,2.035,1.017,2.035,2.296,0,1.287-.918,2.295-2.098,2.295-.531,0-.999-.216-1.341-.621v.576h-.999v-6.428Zm3.439,4.177c0-.819-.576-1.44-1.341-1.44-.45,0-.819,.18-1.081,.504v1.882c.261,.315,.648,.504,1.081,.504,.774,0,1.341-.621,1.341-1.449Z"/>
      <path class="uuid-53f430a3-4897-4d7b-ba23-d689976dfa32" d="M126.55,141.004c0-.81,.667-1.323,1.729-1.323,.423,0,.819,.09,1.215,.288v-.504c0-.594-.342-.9-1.035-.9-.378,0-.792,.108-1.314,.352l-.36-.738c.675-.306,1.269-.459,1.873-.459,1.179,0,1.845,.594,1.845,1.639v2.944h-1.008v-.468c-.387,.378-.819,.549-1.341,.549-.945,0-1.603-.567-1.603-1.377Zm1.882,.657c.405,0,.756-.117,1.062-.378v-.729c-.324-.153-.648-.216-1.035-.216-.585,0-.954,.243-.954,.648,0,.414,.36,.675,.927,.675Z"/>
      <path class="uuid-53f430a3-4897-4d7b-ba23-d689976dfa32" d="M131.328,141.779l.477-.675c.594,.369,.99,.513,1.45,.513,.54,0,.909-.252,.909-.612,0-.279-.189-.423-.63-.513l-.792-.135c-.882-.162-1.306-.567-1.306-1.243,0-.846,.693-1.396,1.747-1.396,.63,0,1.197,.18,1.773,.541l-.477,.675c-.459-.297-.9-.432-1.359-.432-.468,0-.774,.198-.774,.522,0,.288,.162,.414,.63,.495l.801,.153c.9,.162,1.333,.576,1.333,1.251,0,.828-.792,1.467-1.846,1.467-.774,0-1.458-.216-1.936-.612Z"/>
      <path class="uuid-53f430a3-4897-4d7b-ba23-d689976dfa32" d="M136.603,141.13v-2.53h-.9v-.81h.9v-1.243l1.017-.216v1.458h1.251v.81h-1.251v2.305c0,.441,.171,.612,.63,.612,.198,0,.342-.027,.612-.108v.855c-.261,.081-.604,.126-.874,.126-.909,0-1.386-.432-1.386-1.26Z"/>
      <path class="uuid-53f430a3-4897-4d7b-ba23-d689976dfa32" d="M139.644,136.251c0-.342,.279-.63,.63-.63,.342,0,.63,.288,.63,.63s-.288,.621-.63,.621c-.351,0-.63-.279-.63-.621Zm.117,1.54h1.018v4.51h-1.018v-4.51Z"/>
      <path class="uuid-53f430a3-4897-4d7b-ba23-d689976dfa32" d="M141.831,140.05c0-1.333,.972-2.332,2.269-2.332,1.287,0,2.26,1,2.26,2.332s-.973,2.332-2.26,2.332c-1.296,0-2.269-1-2.269-2.332Zm3.529,0c0-.837-.531-1.468-1.26-1.468-.738,0-1.27,.63-1.27,1.468,0,.846,.531,1.467,1.27,1.467,.729,0,1.26-.621,1.26-1.467Z"/>
      <path class="uuid-53f430a3-4897-4d7b-ba23-d689976dfa32" d="M147.411,137.791h1.017v.738c.342-.531,.837-.811,1.422-.811,.927,0,1.576,.657,1.576,1.612v2.971h-1.026v-2.683c0-.657-.387-1.081-.99-1.081-.414,0-.748,.189-.981,.549v3.214h-1.017v-4.51Z"/>
    </g>
    <g>
      <line class="uuid-523e20de-5bbc-45cb-957b-f80bc8ffbde5" x1="158.227" y1="129.941" x2="158.227" y2="129.941"/>
      <line class="uuid-87845e7d-12cc-4ab3-bec0-46deeeddecaa" x1="154.247" y1="129.941" x2="116.437" y2="129.941"/>
      <line class="uuid-523e20de-5bbc-45cb-957b-f80bc8ffbde5" x1="114.447" y1="129.941" x2="114.447" y2="129.941"/>
      <line class="uuid-bae02472-e26d-48f8-97d5-91a5f359c8a4" x1="114.447" y1="125.734" x2="114.447" y2="115.218"/>
      <line class="uuid-523e20de-5bbc-45cb-957b-f80bc8ffbde5" x1="114.447" y1="113.115" x2="114.447" y2="113.115"/>
      <line class="uuid-87845e7d-12cc-4ab3-bec0-46deeeddecaa" x1="118.427" y1="113.115" x2="156.237" y2="113.115"/>
      <line class="uuid-523e20de-5bbc-45cb-957b-f80bc8ffbde5" x1="158.227" y1="113.115" x2="158.227" y2="113.115"/>
      <line class="uuid-bae02472-e26d-48f8-97d5-91a5f359c8a4" x1="158.227" y1="117.321" x2="158.227" y2="127.838"/>
    </g>
    <g>
      <rect class="uuid-1c105d83-a743-4bdf-b34e-929c289752f1" x="118.323" y="117.021" width="35.939" height="8.985"/>
      <line class="uuid-523e20de-5bbc-45cb-957b-f80bc8ffbde5" x1="150.421" y1="120.875" x2="150.421" y2="120.875"/>
      <line class="uuid-f05dc689-b17d-4d05-9ed7-f327c5aabd72" x1="122.724" y1="122.156" x2="128.115" y2="122.156"/>
    </g>
  </g>
  <line class="uuid-e569fedb-e8ae-4f98-a449-bee3fd689186" x1="430.419" y1="175.731" x2="430.419" y2="208.472"/>
  <line class="uuid-e569fedb-e8ae-4f98-a449-bee3fd689186" x1="522.364" y1="175.731" x2="522.364" y2="208.472"/>
  <g>
    <g>
      <path class="uuid-53f430a3-4897-4d7b-ba23-d689976dfa32" d="M270.352,140.761v-2.971h1.026v2.674c0,.666,.387,1.089,.99,1.089,.405,0,.747-.18,.981-.541v-3.223h1.017v4.51h-1.017v-.729c-.342,.531-.829,.801-1.432,.801-.918,0-1.566-.667-1.566-1.612Z"/>
      <path class="uuid-53f430a3-4897-4d7b-ba23-d689976dfa32" d="M276.184,141.13v-2.53h-.9v-.81h.9v-1.243l1.017-.216v1.458h1.251v.81h-1.251v2.305c0,.441,.171,.612,.63,.612,.198,0,.342-.027,.612-.108v.855c-.261,.081-.604,.126-.874,.126-.909,0-1.386-.432-1.386-1.26Z"/>
      <path class="uuid-53f430a3-4897-4d7b-ba23-d689976dfa32" d="M279.226,136.251c0-.342,.279-.63,.63-.63,.342,0,.63,.288,.63,.63s-.288,.621-.63,.621c-.351,0-.63-.279-.63-.621Zm.117,1.54h1.018v4.51h-1.018v-4.51Z"/>
      <path class="uuid-53f430a3-4897-4d7b-ba23-d689976dfa32" d="M281.62,135.846l1.017-.18v6.635h-1.017v-6.455Z"/>
      <path class="uuid-53f430a3-4897-4d7b-ba23-d689976dfa32" d="M283.762,136.251c0-.342,.279-.63,.63-.63,.342,0,.63,.288,.63,.63s-.288,.621-.63,.621c-.351,0-.63-.279-.63-.621Zm.117,1.54h1.018v4.51h-1.018v-4.51Z"/>
      <path class="uuid-53f430a3-4897-4d7b-ba23-d689976dfa32" d="M286.714,141.13v-2.53h-.9v-.81h.9v-1.243l1.017-.216v1.458h1.251v.81h-1.251v2.305c0,.441,.171,.612,.63,.612,.198,0,.342-.027,.612-.108v.855c-.261,.081-.604,.126-.874,.126-.909,0-1.386-.432-1.386-1.26Z"/>
      <path class="uuid-53f430a3-4897-4d7b-ba23-d689976dfa32" d="M289.702,144.21v-.882c.117,.027,.261,.036,.396,.036,.36,0,.576-.162,.729-.513l.207-.504-1.702-4.555h1.125l1.152,3.34,1.251-3.34h1.117l-2.161,5.293c-.351,.873-.766,1.188-1.612,1.188-.144,0-.324-.018-.504-.063Z"/>
    </g>
    <g>
      <line class="uuid-523e20de-5bbc-45cb-957b-f80bc8ffbde5" x1="303.812" y1="129.941" x2="303.812" y2="129.941"/>
      <line class="uuid-87845e7d-12cc-4ab3-bec0-46deeeddecaa" x1="299.832" y1="129.941" x2="262.021" y2="129.941"/>
      <line class="uuid-523e20de-5bbc-45cb-957b-f80bc8ffbde5" x1="260.031" y1="129.941" x2="260.031" y2="129.941"/>
      <line class="uuid-bae02472-e26d-48f8-97d5-91a5f359c8a4" x1="260.031" y1="125.734" x2="260.031" y2="115.218"/>
      <line class="uuid-523e20de-5bbc-45cb-957b-f80bc8ffbde5" x1="260.031" y1="113.115" x2="260.031" y2="113.115"/>
      <line class="uuid-87845e7d-12cc-4ab3-bec0-46deeeddecaa" x1="264.011" y1="113.115" x2="301.822" y2="113.115"/>
      <line class="uuid-523e20de-5bbc-45cb-957b-f80bc8ffbde5" x1="303.812" y1="113.115" x2="303.812" y2="113.115"/>
      <line class="uuid-bae02472-e26d-48f8-97d5-91a5f359c8a4" x1="303.812" y1="117.321" x2="303.812" y2="127.838"/>
    </g>
    <g>
      <rect class="uuid-1c105d83-a743-4bdf-b34e-929c289752f1" x="263.908" y="117.021" width="35.939" height="8.985"/>
      <line class="uuid-523e20de-5bbc-45cb-957b-f80bc8ffbde5" x1="296.005" y1="120.875" x2="296.005" y2="120.875"/>
      <line class="uuid-f05dc689-b17d-4d05-9ed7-f327c5aabd72" x1="268.309" y1="122.156" x2="273.7" y2="122.156"/>
    </g>
  </g>
  <g>
    <g>
      <path class="uuid-53f430a3-4897-4d7b-ba23-d689976dfa32" d="M149.04,238.553c0-1.305,.99-2.331,2.277-2.331,.702,0,1.351,.278,1.801,.765l-.63,.657c-.315-.351-.702-.531-1.134-.531-.729,0-1.296,.631-1.296,1.44,0,.819,.567,1.44,1.296,1.44,.432,0,.819-.18,1.134-.521l.63,.647c-.45,.486-1.099,.766-1.801,.766-1.287,0-2.277-1.018-2.277-2.332Z"/>
      <path class="uuid-53f430a3-4897-4d7b-ba23-d689976dfa32" d="M153.954,234.349l1.017-.18v6.635h-1.017v-6.455Z"/>
      <path class="uuid-53f430a3-4897-4d7b-ba23-d689976dfa32" d="M155.988,239.507c0-.81,.667-1.323,1.729-1.323,.423,0,.819,.091,1.215,.288v-.504c0-.594-.342-.9-1.035-.9-.378,0-.792,.108-1.314,.352l-.36-.738c.675-.307,1.269-.459,1.873-.459,1.179,0,1.845,.594,1.845,1.638v2.944h-1.008v-.468c-.387,.378-.819,.549-1.341,.549-.945,0-1.603-.567-1.603-1.378Zm1.882,.657c.405,0,.756-.116,1.062-.378v-.729c-.324-.153-.648-.217-1.035-.217-.585,0-.954,.243-.954,.648,0,.414,.36,.675,.927,.675Z"/>
      <path class="uuid-53f430a3-4897-4d7b-ba23-d689976dfa32" d="M160.766,240.281l.477-.675c.594,.369,.99,.513,1.45,.513,.54,0,.909-.252,.909-.612,0-.278-.189-.423-.63-.513l-.792-.135c-.882-.162-1.306-.567-1.306-1.242,0-.847,.693-1.396,1.747-1.396,.63,0,1.197,.18,1.773,.54l-.477,.675c-.459-.297-.9-.432-1.359-.432-.468,0-.774,.197-.774,.521,0,.288,.162,.414,.63,.495l.801,.153c.9,.162,1.333,.576,1.333,1.252,0,.828-.792,1.467-1.846,1.467-.774,0-1.458-.216-1.936-.612Z"/>
      <path class="uuid-53f430a3-4897-4d7b-ba23-d689976dfa32" d="M165.078,240.281l.477-.675c.594,.369,.99,.513,1.45,.513,.54,0,.909-.252,.909-.612,0-.278-.189-.423-.63-.513l-.792-.135c-.882-.162-1.306-.567-1.306-1.242,0-.847,.693-1.396,1.747-1.396,.63,0,1.197,.18,1.773,.54l-.477,.675c-.459-.297-.9-.432-1.359-.432-.468,0-.774,.197-.774,.521,0,.288,.162,.414,.63,.495l.801,.153c.9,.162,1.333,.576,1.333,1.252,0,.828-.792,1.467-1.846,1.467-.774,0-1.458-.216-1.936-.612Z"/>
      <path class="uuid-53f430a3-4897-4d7b-ba23-d689976dfa32" d="M169.794,236.293h1.017v.973c.252-.685,.684-1.054,1.242-1.054,.171,.01,.288,.027,.441,.091v.891c-.162-.062-.369-.107-.558-.107-.495,0-.9,.278-1.125,.747v2.971h-1.017v-4.511Z"/>
      <path class="uuid-53f430a3-4897-4d7b-ba23-d689976dfa32" d="M173.123,238.553c0-1.332,.972-2.331,2.269-2.331,1.287,0,2.26,.999,2.26,2.331s-.973,2.332-2.26,2.332c-1.296,0-2.269-.999-2.269-2.332Zm3.529,0c0-.837-.531-1.467-1.26-1.467-.738,0-1.27,.63-1.27,1.467,0,.847,.531,1.468,1.27,1.468,.729,0,1.26-.621,1.26-1.468Z"/>
      <path class="uuid-53f430a3-4897-4d7b-ba23-d689976dfa32" d="M178.496,238.553c0-1.332,.972-2.331,2.269-2.331,1.287,0,2.26,.999,2.26,2.331s-.973,2.332-2.26,2.332c-1.296,0-2.269-.999-2.269-2.332Zm3.529,0c0-.837-.531-1.467-1.26-1.467-.738,0-1.27,.63-1.27,1.467,0,.847,.531,1.468,1.27,1.468,.729,0,1.26-.621,1.26-1.468Z"/>
      <path class="uuid-53f430a3-4897-4d7b-ba23-d689976dfa32" d="M184.076,236.293h1.017v.712c.333-.514,.783-.783,1.333-.783,.621,0,1.098,.333,1.333,.864,.351-.567,.855-.864,1.494-.864,.874,0,1.477,.675,1.477,1.629v2.953h-1.018v-2.728c0-.631-.351-1.035-.909-1.035-.369,0-.675,.171-.9,.54,.009,.09,.018,.18,.018,.27v2.953h-1.026v-2.728c0-.631-.352-1.035-.91-1.035-.369,0-.666,.171-.891,.521v3.241h-1.017v-4.511Z"/>
    </g>
    <g>
      <line class="uuid-523e20de-5bbc-45cb-957b-f80bc8ffbde5" x1="191.863" y1="229.444" x2="191.863" y2="229.444"/>
      <line class="uuid-b8ac3f44-ff5a-4bf3-bba5-68f72beadae8" x1="186.999" y1="229.444" x2="150.515" y2="229.444"/>
      <line class="uuid-523e20de-5bbc-45cb-957b-f80bc8ffbde5" x1="148.083" y1="229.444" x2="148.083" y2="229.444"/>
      <line class="uuid-174f589f-9482-458c-98b2-4847df49f671" x1="148.083" y1="223.835" x2="148.083" y2="215.422"/>
      <line class="uuid-523e20de-5bbc-45cb-957b-f80bc8ffbde5" x1="148.083" y1="212.618" x2="148.083" y2="212.618"/>
      <line class="uuid-b8ac3f44-ff5a-4bf3-bba5-68f72beadae8" x1="152.947" y1="212.618" x2="189.431" y2="212.618"/>
      <line class="uuid-523e20de-5bbc-45cb-957b-f80bc8ffbde5" x1="191.863" y1="212.618" x2="191.863" y2="212.618"/>
      <line class="uuid-174f589f-9482-458c-98b2-4847df49f671" x1="191.863" y1="218.226" x2="191.863" y2="226.64"/>
    </g>
    <g>
      <rect class="uuid-1c105d83-a743-4bdf-b34e-929c289752f1" x="151.959" y="216.524" width="35.939" height="8.985"/>
      <line class="uuid-523e20de-5bbc-45cb-957b-f80bc8ffbde5" x1="184.057" y1="220.378" x2="184.057" y2="220.378"/>
      <line class="uuid-f05dc689-b17d-4d05-9ed7-f327c5aabd72" x1="156.36" y1="221.659" x2="161.751" y2="221.659"/>
    </g>
  </g>
  <g>
    <line class="uuid-11b6b430-d046-4eea-822c-e85d6ee457a1" x1="225.702" y1="121.239" x2="253.367" y2="121.239"/>
    <polygon points="226.651 124.48 221.038 121.24 226.651 117.999 226.651 124.48"/>
    <polygon points="252.419 124.48 258.031 121.24 252.419 117.999 252.419 124.48"/>
  </g>
  <g>
    <g>
      <path class="uuid-53f430a3-4897-4d7b-ba23-d689976dfa32" d="M181.104,135.93h1.053l3.286,4.582-.018-4.582h1.017v6.302h-.963l-3.376-4.708,.018,4.708h-1.017v-6.302Z"/>
      <path class="uuid-53f430a3-4897-4d7b-ba23-d689976dfa32" d="M187.953,135.93h4.528v.918h-3.448v1.801h2.377v.9h-2.377v2.683h-1.08v-6.302Z"/>
      <path class="uuid-53f430a3-4897-4d7b-ba23-d689976dfa32" d="M193.119,141.314l.585-.792c.81,.666,1.396,.918,2.125,.918,.828,0,1.404-.423,1.404-1.009,0-.513-.306-.756-1.143-.9l-1.162-.198c-1.089-.198-1.62-.738-1.62-1.603,0-1.143,.909-1.899,2.323-1.899,.945,0,1.809,.279,2.53,.81l-.549,.811c-.63-.478-1.306-.729-2.017-.729-.756,0-1.26,.387-1.26,.9,0,.459,.288,.693,.972,.801l1.125,.189c1.269,.225,1.863,.783,1.863,1.738,0,1.161-1.026,1.98-2.53,1.98-.99,0-1.846-.342-2.647-1.018Z"/>
      <path class="uuid-53f430a3-4897-4d7b-ba23-d689976dfa32" d="M200.886,141.71l.477-.675c.594,.369,.99,.513,1.45,.513,.54,0,.909-.252,.909-.612,0-.279-.189-.423-.63-.513l-.792-.135c-.882-.162-1.306-.567-1.306-1.243,0-.846,.693-1.396,1.747-1.396,.63,0,1.197,.18,1.773,.541l-.477,.675c-.459-.297-.9-.432-1.359-.432-.468,0-.774,.198-.774,.522,0,.288,.162,.414,.63,.495l.801,.153c.9,.162,1.333,.576,1.333,1.251,0,.828-.792,1.467-1.846,1.467-.774,0-1.458-.216-1.936-.612Z"/>
      <path class="uuid-53f430a3-4897-4d7b-ba23-d689976dfa32" d="M206.16,141.062v-2.53h-.9v-.81h.9v-1.243l1.017-.216v1.458h1.251v.81h-1.251v2.305c0,.441,.171,.612,.63,.612,.198,0,.342-.027,.612-.108v.855c-.261,.081-.604,.126-.874,.126-.909,0-1.386-.432-1.386-1.26Z"/>
      <path class="uuid-53f430a3-4897-4d7b-ba23-d689976dfa32" d="M209.121,139.982c0-1.333,.972-2.332,2.269-2.332,1.287,0,2.26,1,2.26,2.332s-.973,2.332-2.26,2.332c-1.296,0-2.269-1-2.269-2.332Zm3.529,0c0-.837-.531-1.468-1.26-1.468-.738,0-1.27,.63-1.27,1.468,0,.846,.531,1.467,1.27,1.467,.729,0,1.26-.621,1.26-1.467Z"/>
      <path class="uuid-53f430a3-4897-4d7b-ba23-d689976dfa32" d="M214.701,137.722h1.017v.972c.252-.684,.684-1.053,1.242-1.053,.171,.009,.288,.027,.441,.09v.892c-.162-.063-.369-.108-.558-.108-.495,0-.9,.279-1.125,.748v2.971h-1.017v-4.51Z"/>
      <path class="uuid-53f430a3-4897-4d7b-ba23-d689976dfa32" d="M218.003,140.936c0-.81,.667-1.323,1.729-1.323,.423,0,.819,.09,1.215,.288v-.504c0-.594-.342-.9-1.035-.9-.378,0-.792,.108-1.314,.352l-.36-.738c.675-.306,1.269-.459,1.873-.459,1.179,0,1.845,.594,1.845,1.639v2.944h-1.008v-.468c-.387,.378-.819,.549-1.341,.549-.945,0-1.603-.567-1.603-1.377Zm1.882,.657c.405,0,.756-.117,1.062-.378v-.729c-.324-.153-.648-.216-1.035-.216-.585,0-.954,.243-.954,.648,0,.414,.36,.675,.927,.675Z"/>
      <path class="uuid-53f430a3-4897-4d7b-ba23-d689976dfa32" d="M223.484,143.762l.351-.747c.531,.261,.963,.378,1.414,.378,.756,0,1.152-.342,1.152-.999v-.765c-.324,.396-.819,.63-1.387,.63-1.143,0-2.034-1.017-2.034-2.295s.927-2.278,2.106-2.278c.522,0,.99,.207,1.323,.603v-.567h1.008v4.672c0,1.161-.756,1.81-2.125,1.81-.648,0-1.278-.162-1.81-.441Zm2.917-2.845v-1.891c-.261-.306-.648-.486-1.071-.486-.774,0-1.351,.603-1.351,1.431,0,.819,.576,1.44,1.351,1.44,.441,0,.81-.18,1.071-.495Z"/>
      <path class="uuid-53f430a3-4897-4d7b-ba23-d689976dfa32" d="M228.461,139.982c0-1.324,.954-2.332,2.196-2.332,1.233,0,2.134,.981,2.134,2.332v.243h-3.331c.099,.729,.648,1.261,1.351,1.261,.423,0,.819-.162,1.071-.423l.666,.603c-.549,.459-1.098,.657-1.782,.657-1.296,0-2.305-1.017-2.305-2.34Zm3.367-.387c-.108-.657-.576-1.116-1.179-1.116-.612,0-1.062,.441-1.179,1.116h2.358Z"/>
    </g>
    <g>
      <path class="uuid-1c105d83-a743-4bdf-b34e-929c289752f1" d="M194.715,116.307v6.66c0,3.678,5.397,6.66,12.055,6.66s12.055-2.982,12.055-6.66v-6.66"/>
      <ellipse class="uuid-1c105d83-a743-4bdf-b34e-929c289752f1" cx="206.771" cy="116.307" rx="12.055" ry="6.66"/>
    </g>
  </g>
  <g>
    <g>
      <path class="uuid-53f430a3-4897-4d7b-ba23-d689976dfa32" d="M458.571,136.791h1.017v.711c.333-.513,.783-.783,1.333-.783,.621,0,1.098,.333,1.332,.864,.352-.567,.855-.864,1.494-.864,.874,0,1.477,.675,1.477,1.629v2.953h-1.017v-2.728c0-.63-.352-1.035-.91-1.035-.369,0-.675,.171-.899,.54,.009,.09,.018,.18,.018,.27v2.953h-1.026v-2.728c0-.63-.351-1.035-.909-1.035-.369,0-.666,.171-.892,.522v3.241h-1.017v-4.51Z"/>
      <path class="uuid-53f430a3-4897-4d7b-ba23-d689976dfa32" d="M466.22,140.004c0-.81,.666-1.323,1.729-1.323,.423,0,.819,.09,1.215,.288v-.504c0-.594-.342-.9-1.035-.9-.378,0-.792,.108-1.314,.352l-.359-.738c.675-.306,1.269-.459,1.872-.459,1.18,0,1.846,.594,1.846,1.639v2.944h-1.009v-.468c-.387,.378-.818,.549-1.341,.549-.945,0-1.603-.567-1.603-1.377Zm1.882,.657c.404,0,.756-.117,1.062-.378v-.729c-.323-.153-.647-.216-1.035-.216-.585,0-.954,.243-.954,.648,0,.414,.36,.675,.928,.675Z"/>
      <path class="uuid-53f430a3-4897-4d7b-ba23-d689976dfa32" d="M470.999,140.779l.477-.675c.595,.369,.99,.513,1.45,.513,.54,0,.909-.252,.909-.612,0-.279-.189-.423-.631-.513l-.792-.135c-.882-.162-1.306-.567-1.306-1.243,0-.846,.693-1.396,1.747-1.396,.63,0,1.197,.18,1.773,.541l-.478,.675c-.459-.297-.9-.432-1.359-.432-.468,0-.774,.198-.774,.522,0,.288,.162,.414,.631,.495l.801,.153c.9,.162,1.333,.576,1.333,1.251,0,.828-.793,1.467-1.846,1.467-.774,0-1.459-.216-1.936-.612Z"/>
      <path class="uuid-53f430a3-4897-4d7b-ba23-d689976dfa32" d="M476.273,140.13v-2.53h-.9v-.81h.9v-1.243l1.018-.216v1.458h1.251v.81h-1.251v2.305c0,.441,.171,.612,.63,.612,.198,0,.342-.027,.612-.108v.855c-.261,.081-.604,.126-.873,.126-.909,0-1.387-.432-1.387-1.26Z"/>
      <path class="uuid-53f430a3-4897-4d7b-ba23-d689976dfa32" d="M479.234,139.05c0-1.324,.954-2.332,2.196-2.332,1.233,0,2.134,.981,2.134,2.332v.243h-3.331c.1,.729,.648,1.261,1.351,1.261,.423,0,.819-.162,1.071-.423l.666,.603c-.549,.459-1.098,.657-1.782,.657-1.296,0-2.305-1.017-2.305-2.34Zm3.367-.387c-.108-.657-.576-1.116-1.18-1.116-.612,0-1.062,.441-1.179,1.116h2.358Z"/>
      <path class="uuid-53f430a3-4897-4d7b-ba23-d689976dfa32" d="M484.598,136.791h1.017v.972c.252-.684,.685-1.053,1.242-1.053,.172,.009,.288,.027,.441,.09v.892c-.162-.063-.369-.108-.558-.108-.495,0-.9,.279-1.126,.748v2.971h-1.017v-4.51Z"/>
      <path class="uuid-53f430a3-4897-4d7b-ba23-d689976dfa32" d="M487.954,138.15c0-1.936,1.054-3.25,2.584-3.25s2.575,1.314,2.575,3.25-1.045,3.241-2.575,3.241-2.584-1.314-2.584-3.241Zm4.178,0c0-1.45-.621-2.377-1.594-2.377s-1.603,.927-1.603,2.377c0,1.44,.63,2.368,1.603,2.368s1.594-.927,1.594-2.368Z"/>
      <path class="uuid-53f430a3-4897-4d7b-ba23-d689976dfa32" d="M495.02,136.034l-1.116,.477v-.873l1.477-.639h.621v6.302h-.981v-5.267Z"/>
    </g>
    <g>
      <rect class="uuid-1c105d83-a743-4bdf-b34e-929c289752f1" x="459.28" y="117.021" width="35.939" height="8.985"/>
      <line class="uuid-523e20de-5bbc-45cb-957b-f80bc8ffbde5" x1="491.378" y1="120.875" x2="491.378" y2="120.875"/>
      <line class="uuid-f05dc689-b17d-4d05-9ed7-f327c5aabd72" x1="463.681" y1="122.156" x2="469.072" y2="122.156"/>
    </g>
  </g>
  <g>
    <g>
      <path class="uuid-53f430a3-4897-4d7b-ba23-d689976dfa32" d="M413.538,230.347h2.8c1.252,0,2.106,.774,2.106,1.908,0,.819-.485,1.458-1.251,1.729l1.332,2.665h-1.197l-1.215-2.521h-1.495v2.521h-1.08v-6.302Zm2.701,2.917c.675,0,1.116-.396,1.116-1,0-.612-.441-1.008-1.116-1.008h-1.621v2.008h1.621Z"/>
      <path class="uuid-53f430a3-4897-4d7b-ba23-d689976dfa32" d="M419.253,234.399c0-1.324,.954-2.332,2.196-2.332,1.233,0,2.134,.981,2.134,2.332v.243h-3.331c.1,.729,.648,1.261,1.351,1.261,.423,0,.819-.162,1.071-.423l.666,.603c-.549,.459-1.098,.657-1.782,.657-1.296,0-2.305-1.017-2.305-2.34Zm3.367-.387c-.108-.657-.576-1.116-1.18-1.116-.612,0-1.062,.441-1.179,1.116h2.358Z"/>
      <path class="uuid-53f430a3-4897-4d7b-ba23-d689976dfa32" d="M424.914,238.179l.352-.747c.531,.261,.963,.378,1.413,.378,.757,0,1.152-.342,1.152-.999v-.765c-.324,.396-.819,.63-1.387,.63-1.143,0-2.034-1.017-2.034-2.295s.928-2.278,2.106-2.278c.522,0,.99,.207,1.323,.603v-.567h1.009v4.672c0,1.161-.757,1.81-2.125,1.81-.648,0-1.278-.162-1.81-.441Zm2.917-2.845v-1.891c-.261-.306-.648-.486-1.071-.486-.774,0-1.351,.603-1.351,1.431,0,.819,.576,1.44,1.351,1.44,.441,0,.811-.18,1.071-.495Z"/>
      <path class="uuid-53f430a3-4897-4d7b-ba23-d689976dfa32" d="M429.972,230.599c0-.342,.279-.63,.631-.63,.342,0,.63,.288,.63,.63s-.288,.621-.63,.621c-.352,0-.631-.279-.631-.621Zm.117,1.54h1.018v4.51h-1.018v-4.51Z"/>
      <path class="uuid-53f430a3-4897-4d7b-ba23-d689976dfa32" d="M431.961,236.127l.478-.675c.594,.369,.99,.513,1.449,.513,.54,0,.909-.252,.909-.612,0-.279-.188-.423-.63-.513l-.792-.135c-.883-.162-1.306-.567-1.306-1.243,0-.846,.693-1.396,1.746-1.396,.631,0,1.197,.18,1.773,.541l-.477,.675c-.459-.297-.9-.432-1.359-.432-.469,0-.774,.198-.774,.522,0,.288,.162,.414,.63,.495l.802,.153c.9,.162,1.332,.576,1.332,1.251,0,.828-.792,1.467-1.846,1.467-.774,0-1.458-.216-1.936-.612Z"/>
      <path class="uuid-53f430a3-4897-4d7b-ba23-d689976dfa32" d="M437.236,235.479v-2.53h-.9v-.81h.9v-1.243l1.017-.216v1.458h1.252v.81h-1.252v2.305c0,.441,.171,.612,.631,.612,.197,0,.342-.027,.612-.108v.855c-.262,.081-.604,.126-.874,.126-.909,0-1.386-.432-1.386-1.26Z"/>
      <path class="uuid-53f430a3-4897-4d7b-ba23-d689976dfa32" d="M440.404,232.139h1.017v.972c.252-.684,.685-1.053,1.242-1.053,.172,.009,.288,.027,.441,.09v.892c-.162-.063-.369-.108-.558-.108-.495,0-.9,.279-1.126,.748v2.971h-1.017v-4.51Z"/>
      <path class="uuid-53f430a3-4897-4d7b-ba23-d689976dfa32" d="M443.76,238.558v-.882c.117,.027,.261,.036,.396,.036,.36,0,.576-.162,.729-.513l.207-.504-1.701-4.555h1.125l1.152,3.34,1.251-3.34h1.117l-2.161,5.293c-.351,.873-.766,1.188-1.611,1.188-.145,0-.324-.018-.504-.063Z"/>
    </g>
    <g>
      <rect class="uuid-1c105d83-a743-4bdf-b34e-929c289752f1" x="412.449" y="214.37" width="35.939" height="8.985"/>
      <line class="uuid-523e20de-5bbc-45cb-957b-f80bc8ffbde5" x1="444.546" y1="218.223" x2="444.546" y2="218.223"/>
      <line class="uuid-f05dc689-b17d-4d05-9ed7-f327c5aabd72" x1="416.85" y1="219.504" x2="422.241" y2="219.504"/>
    </g>
  </g>
  <g>
    <g>
      <path class="uuid-53f430a3-4897-4d7b-ba23-d689976dfa32" d="M514.53,230.347h1.08v6.302h-1.08v-6.302Z"/>
      <path class="uuid-53f430a3-4897-4d7b-ba23-d689976dfa32" d="M517.077,230.347h2.305c1.81,0,3.159,1.377,3.159,3.151s-1.35,3.151-3.159,3.151h-2.305v-6.302Zm2.331,5.365c1.135,0,2.026-.963,2.026-2.214s-.892-2.215-2.026-2.215h-1.251v4.429h1.251Z"/>
      <path class="uuid-53f430a3-4897-4d7b-ba23-d689976dfa32" d="M523.754,230.347h1.404l1.846,3.826,1.836-3.826h1.404v6.302h-1.017v-4.934l-2.233,4.483-2.241-4.51v4.96h-.999v-6.302Z"/>
    </g>
    <g>
      <rect class="uuid-1c105d83-a743-4bdf-b34e-929c289752f1" x="504.395" y="214.37" width="35.939" height="8.985"/>
      <line class="uuid-523e20de-5bbc-45cb-957b-f80bc8ffbde5" x1="536.492" y1="218.223" x2="536.492" y2="218.223"/>
      <line class="uuid-f05dc689-b17d-4d05-9ed7-f327c5aabd72" x1="508.796" y1="219.504" x2="514.187" y2="219.504"/>
    </g>
  </g>
  <g>
    <line class="uuid-11b6b430-d046-4eea-822c-e85d6ee457a1" x1="421.075" y1="121.239" x2="453.267" y2="121.239"/>
    <polygon points="422.023 124.48 416.411 121.24 422.023 117.999 422.023 124.48"/>
    <polygon points="452.318 124.48 457.931 121.24 452.318 117.999 452.318 124.48"/>
  </g>
  <g>
    <g>
      <path class="uuid-53f430a3-4897-4d7b-ba23-d689976dfa32" d="M375.712,134.777l1.017-.18v6.635h-1.017v-6.455Z"/>
      <path class="uuid-53f430a3-4897-4d7b-ba23-d689976dfa32" d="M377.773,138.982c0-1.333,.973-2.332,2.269-2.332,1.287,0,2.26,1,2.26,2.332s-.973,2.332-2.26,2.332c-1.296,0-2.269-1-2.269-2.332Zm3.529,0c0-.837-.531-1.468-1.261-1.468-.738,0-1.27,.63-1.27,1.468,0,.846,.531,1.467,1.27,1.467,.729,0,1.261-.621,1.261-1.467Z"/>
      <path class="uuid-53f430a3-4897-4d7b-ba23-d689976dfa32" d="M383.146,138.982c0-1.306,.99-2.332,2.277-2.332,.702,0,1.351,.279,1.801,.765l-.631,.657c-.314-.351-.702-.531-1.134-.531-.729,0-1.297,.63-1.297,1.44,0,.819,.567,1.44,1.297,1.44,.432,0,.819-.18,1.134-.522l.631,.648c-.45,.486-1.099,.765-1.801,.765-1.287,0-2.277-1.018-2.277-2.332Z"/>
      <path class="uuid-53f430a3-4897-4d7b-ba23-d689976dfa32" d="M387.826,139.936c0-.81,.666-1.323,1.729-1.323,.423,0,.819,.09,1.215,.288v-.504c0-.594-.342-.9-1.035-.9-.378,0-.792,.108-1.314,.352l-.359-.738c.675-.306,1.269-.459,1.872-.459,1.18,0,1.846,.594,1.846,1.639v2.944h-1.009v-.468c-.387,.378-.818,.549-1.341,.549-.945,0-1.603-.567-1.603-1.377Zm1.882,.657c.404,0,.756-.117,1.062-.378v-.729c-.323-.153-.647-.216-1.035-.216-.585,0-.954,.243-.954,.648,0,.414,.36,.675,.928,.675Z"/>
      <path class="uuid-53f430a3-4897-4d7b-ba23-d689976dfa32" d="M393.01,134.777l1.017-.18v6.635h-1.017v-6.455Z"/>
      <path class="uuid-53f430a3-4897-4d7b-ba23-d689976dfa32" d="M396.898,140.71l.477-.675c.595,.369,.99,.513,1.45,.513,.54,0,.909-.252,.909-.612,0-.279-.189-.423-.631-.513l-.792-.135c-.882-.162-1.306-.567-1.306-1.243,0-.846,.693-1.396,1.747-1.396,.63,0,1.197,.18,1.773,.541l-.478,.675c-.459-.297-.9-.432-1.359-.432-.468,0-.774,.198-.774,.522,0,.288,.162,.414,.631,.495l.801,.153c.9,.162,1.333,.576,1.333,1.251,0,.828-.793,1.467-1.846,1.467-.774,0-1.459-.216-1.936-.612Z"/>
      <path class="uuid-53f430a3-4897-4d7b-ba23-d689976dfa32" d="M402.171,140.062v-2.53h-.9v-.81h.9v-1.243l1.018-.216v1.458h1.251v.81h-1.251v2.305c0,.441,.171,.612,.63,.612,.198,0,.342-.027,.612-.108v.855c-.261,.081-.604,.126-.873,.126-.909,0-1.387-.432-1.387-1.26Z"/>
      <path class="uuid-53f430a3-4897-4d7b-ba23-d689976dfa32" d="M405.132,138.982c0-1.333,.973-2.332,2.269-2.332,1.287,0,2.26,1,2.26,2.332s-.973,2.332-2.26,2.332c-1.296,0-2.269-1-2.269-2.332Zm3.529,0c0-.837-.531-1.468-1.261-1.468-.738,0-1.27,.63-1.27,1.468,0,.846,.531,1.467,1.27,1.467,.729,0,1.261-.621,1.261-1.467Z"/>
      <path class="uuid-53f430a3-4897-4d7b-ba23-d689976dfa32" d="M410.712,136.722h1.018v.972c.252-.684,.684-1.053,1.242-1.053,.171,.009,.288,.027,.441,.09v.892c-.162-.063-.369-.108-.559-.108-.495,0-.9,.279-1.125,.748v2.971h-1.018v-4.51Z"/>
      <path class="uuid-53f430a3-4897-4d7b-ba23-d689976dfa32" d="M414.015,139.936c0-.81,.666-1.323,1.729-1.323,.423,0,.819,.09,1.215,.288v-.504c0-.594-.342-.9-1.035-.9-.378,0-.792,.108-1.314,.352l-.359-.738c.675-.306,1.269-.459,1.872-.459,1.18,0,1.846,.594,1.846,1.639v2.944h-1.009v-.468c-.387,.378-.818,.549-1.341,.549-.945,0-1.603-.567-1.603-1.377Zm1.882,.657c.404,0,.756-.117,1.062-.378v-.729c-.323-.153-.647-.216-1.035-.216-.585,0-.954,.243-.954,.648,0,.414,.36,.675,.928,.675Z"/>
      <path class="uuid-53f430a3-4897-4d7b-ba23-d689976dfa32" d="M419.495,142.762l.352-.747c.531,.261,.963,.378,1.413,.378,.757,0,1.152-.342,1.152-.999v-.765c-.324,.396-.819,.63-1.387,.63-1.143,0-2.034-1.017-2.034-2.295s.928-2.278,2.106-2.278c.522,0,.99,.207,1.323,.603v-.567h1.009v4.672c0,1.161-.756,1.81-2.125,1.81-.647,0-1.278-.162-1.81-.441Zm2.917-2.845v-1.891c-.261-.306-.648-.486-1.071-.486-.774,0-1.351,.603-1.351,1.431,0,.819,.576,1.44,1.351,1.44,.441,0,.811-.18,1.071-.495Z"/>
      <path class="uuid-53f430a3-4897-4d7b-ba23-d689976dfa32" d="M424.473,138.982c0-1.324,.954-2.332,2.196-2.332,1.233,0,2.134,.981,2.134,2.332v.243h-3.331c.099,.729,.648,1.261,1.351,1.261,.423,0,.819-.162,1.071-.423l.666,.603c-.549,.459-1.099,.657-1.782,.657-1.297,0-2.305-1.017-2.305-2.34Zm3.366-.387c-.107-.657-.576-1.116-1.179-1.116-.612,0-1.062,.441-1.18,1.116h2.358Z"/>
    </g>
    <g>
      <path class="uuid-1c105d83-a743-4bdf-b34e-929c289752f1" d="M390.088,116.307v6.66c0,3.678,5.397,6.66,12.055,6.66s12.055-2.982,12.055-6.66v-6.66"/>
      <ellipse class="uuid-1c105d83-a743-4bdf-b34e-929c289752f1" cx="402.143" cy="116.307" rx="12.055" ry="6.66"/>
    </g>
  </g>
  <g>
    <path d="M365.375,49.673c0-1.818,1.431-3.25,3.259-3.25s3.259,1.432,3.259,3.25-1.432,3.25-3.259,3.25-3.259-1.432-3.259-3.25Zm4.924,0c0-1.071-.72-1.873-1.665-1.873s-1.666,.801-1.666,1.873,.721,1.873,1.666,1.873,1.665-.801,1.665-1.873Z"/>
    <path d="M372.864,48.178h1.44v.648c.306-.414,.818-.675,1.377-.675,1.144,0,2.053,1.053,2.053,2.359s-.954,2.34-2.161,2.34c-.504,0-.945-.189-1.251-.54v2.395h-1.458v-6.527Zm3.438,2.323c0-.657-.477-1.143-1.107-1.143-.36,0-.639,.126-.873,.378v1.548c.225,.234,.531,.369,.873,.369,.64,0,1.107-.486,1.107-1.152Z"/>
    <path d="M378.453,50.51c0-1.36,1.008-2.404,2.34-2.404,1.342,0,2.287,1.017,2.287,2.458v.315h-3.196c.136,.522,.559,.874,1.09,.874,.387,0,.711-.135,.918-.387l.963,.801c-.603,.531-1.17,.747-1.953,.747-1.368,0-2.448-1.053-2.448-2.403Zm3.276-.459c-.126-.495-.477-.81-.945-.81-.459,0-.783,.297-.9,.81h1.846Z"/>
    <path d="M383.987,48.178h1.458v.756c.36-.54,.864-.828,1.468-.828,.9,0,1.54,.657,1.54,1.584v3.133h-1.459v-2.71c0-.522-.306-.864-.774-.864-.314,0-.566,.126-.774,.387v3.187h-1.458v-4.646Z"/>
    <path d="M389.153,51.968l.792-1.143c.873,.612,1.423,.837,2.044,.837,.666,0,1.071-.271,1.071-.667,0-.369-.216-.549-.828-.657l-1.342-.234c-.999-.171-1.548-.801-1.548-1.692,0-1.225,.936-1.99,2.502-1.99,.973,0,1.936,.315,2.584,.828l-.783,1.125c-.612-.468-1.215-.693-1.882-.693-.612,0-.963,.252-.963,.594,0,.324,.207,.486,.711,.576l1.261,.216c1.18,.198,1.801,.819,1.801,1.782,0,1.233-1.045,2.071-2.692,2.071-.999,0-1.891-.333-2.728-.955Z"/>
    <path d="M395.444,46.414l1.458-.225v2.746c.36-.54,.864-.828,1.468-.828,.9,0,1.54,.657,1.54,1.584v3.133h-1.459v-2.71c0-.522-.306-.864-.774-.864-.314,0-.566,.126-.774,.387v3.187h-1.458v-6.41Z"/>
    <path d="M400.915,46.648c0-.45,.369-.819,.819-.819s.819,.369,.819,.819-.369,.819-.819,.819-.819-.369-.819-.819Zm.091,1.53h1.458v4.646h-1.458v-4.646Z"/>
    <path d="M404.282,49.304h-.963v-1.125h.963v-.612c0-1.107,.657-1.711,1.854-1.711,.252,0,.585,.036,.774,.09v1.197c-.261-.045-.396-.054-.559-.054-.414,0-.611,.162-.611,.504v.585h1.17v1.125h-1.17v3.52h-1.459v-3.52Z"/>
    <path d="M408.35,51.42v-2.116h-.9v-1.125h.9v-1.287l1.458-.297v1.584h1.243v1.125h-1.243v1.828c0,.414,.162,.558,.612,.558,.171,0,.307-.018,.595-.099v1.179c-.271,.081-.702,.144-1,.144-1.098,0-1.665-.504-1.665-1.494Z"/>
    <path d="M413.588,50.51c0-1.36,1.044-2.404,2.403-2.404,.766,0,1.468,.306,1.936,.855l-.892,.892c-.297-.351-.594-.504-.99-.504-.576,0-1.008,.495-1.008,1.162s.432,1.161,1.008,1.161c.396,0,.693-.153,.99-.504l.892,.892c-.468,.549-1.17,.855-1.936,.855-1.359,0-2.403-1.044-2.403-2.403Z"/>
    <path d="M418.646,46.414l1.458-.225v6.635h-1.458v-6.41Z"/>
    <path d="M421.202,51.312v-3.133h1.458v2.71c0,.522,.307,.864,.774,.864,.315,0,.567-.126,.774-.387v-3.187h1.458v4.646h-1.458v-.756c-.36,.54-.864,.828-1.468,.828-.9,0-1.539-.657-1.539-1.584Z"/>
    <path d="M426.421,52.347l.639-.972c.667,.351,1.045,.468,1.495,.468,.414,0,.666-.144,.666-.378,0-.18-.135-.279-.433-.333l-.891-.162c-.9-.171-1.369-.63-1.369-1.351,0-.945,.729-1.512,1.945-1.512,.647,0,1.287,.18,1.891,.531l-.667,.927c-.468-.27-.899-.396-1.332-.396-.351,0-.558,.117-.558,.315,0,.189,.116,.27,.477,.333l.873,.162c.919,.171,1.396,.639,1.396,1.341,0,.909-.855,1.593-1.998,1.593-.847,0-1.594-.198-2.134-.567Z"/>
    <path d="M431.92,51.42v-2.116h-.899v-1.125h.899v-1.287l1.459-.297v1.584h1.242v1.125h-1.242v1.828c0,.414,.162,.558,.612,.558,.171,0,.306-.018,.594-.099v1.179c-.27,.081-.702,.144-.999,.144-1.099,0-1.666-.504-1.666-1.494Z"/>
    <path d="M435.178,50.51c0-1.36,1.009-2.404,2.341-2.404,1.341,0,2.286,1.017,2.286,2.458v.315h-3.195c.135,.522,.558,.874,1.089,.874,.388,0,.712-.135,.919-.387l.963,.801c-.604,.531-1.17,.747-1.953,.747-1.369,0-2.449-1.053-2.449-2.403Zm3.277-.459c-.126-.495-.478-.81-.945-.81-.459,0-.783,.297-.9,.81h1.846Z"/>
    <path d="M440.713,48.178h1.458v1.053c.298-.774,.712-1.143,1.261-1.143,.207,.009,.307,.027,.486,.117v1.251c-.18-.09-.433-.144-.685-.144-.432,0-.828,.225-1.062,.576v2.935h-1.458v-4.646Z"/>
  </g>
  <g>
    <line class="uuid-11b6b430-d046-4eea-822c-e85d6ee457a1" x1="198.053" y1="219.795" x2="230.971" y2="219.795"/>
    <polygon points="199.001 223.036 193.388 219.796 199.001 216.555 199.001 223.036"/>
    <polygon points="230.022 223.036 235.635 219.796 230.022 216.555 230.022 223.036"/>
  </g>
  <g>
    <g>
      <path class="uuid-53f430a3-4897-4d7b-ba23-d689976dfa32" d="M241.981,234.585h1.08v6.302h-1.08v-6.302Z"/>
      <path class="uuid-53f430a3-4897-4d7b-ba23-d689976dfa32" d="M244.402,236.376h1.017v.738c.342-.531,.837-.81,1.422-.81,.927,0,1.576,.657,1.576,1.611v2.971h-1.026v-2.683c0-.657-.387-1.08-.99-1.08-.414,0-.748,.188-.981,.549v3.214h-1.017v-4.511Z"/>
      <path class="uuid-53f430a3-4897-4d7b-ba23-d689976dfa32" d="M250.198,239.717v-2.53h-.9v-.811h.9v-1.242l1.017-.216v1.458h1.251v.811h-1.251v2.305c0,.441,.171,.612,.63,.612,.198,0,.342-.027,.612-.108v.855c-.261,.081-.604,.126-.874,.126-.909,0-1.386-.432-1.386-1.26Z"/>
      <path class="uuid-53f430a3-4897-4d7b-ba23-d689976dfa32" d="M253.159,238.636c0-1.323,.954-2.331,2.196-2.331,1.233,0,2.134,.981,2.134,2.331v.243h-3.331c.099,.729,.648,1.261,1.351,1.261,.423,0,.819-.162,1.071-.423l.666,.603c-.549,.459-1.098,.657-1.782,.657-1.296,0-2.305-1.018-2.305-2.341Zm3.367-.387c-.108-.657-.576-1.116-1.179-1.116-.612,0-1.062,.44-1.179,1.116h2.358Z"/>
      <path class="uuid-53f430a3-4897-4d7b-ba23-d689976dfa32" d="M258.523,236.376h1.017v.973c.252-.685,.684-1.054,1.242-1.054,.171,.01,.288,.027,.441,.091v.891c-.162-.062-.369-.107-.558-.107-.495,0-.9,.278-1.125,.747v2.971h-1.017v-4.511Z"/>
      <path class="uuid-53f430a3-4897-4d7b-ba23-d689976dfa32" d="M262.06,236.376h1.017v.738c.342-.531,.837-.81,1.422-.81,.927,0,1.576,.657,1.576,1.611v2.971h-1.026v-2.683c0-.657-.387-1.08-.99-1.08-.414,0-.748,.188-.981,.549v3.214h-1.017v-4.511Z"/>
      <path class="uuid-53f430a3-4897-4d7b-ba23-d689976dfa32" d="M267.091,238.636c0-1.323,.954-2.331,2.196-2.331,1.233,0,2.134,.981,2.134,2.331v.243h-3.331c.099,.729,.648,1.261,1.351,1.261,.423,0,.819-.162,1.071-.423l.666,.603c-.549,.459-1.098,.657-1.782,.657-1.296,0-2.305-1.018-2.305-2.341Zm3.367-.387c-.108-.657-.576-1.116-1.179-1.116-.612,0-1.062,.44-1.179,1.116h2.358Z"/>
      <path class="uuid-53f430a3-4897-4d7b-ba23-d689976dfa32" d="M273.013,239.717v-2.53h-.9v-.811h.9v-1.242l1.017-.216v1.458h1.251v.811h-1.251v2.305c0,.441,.171,.612,.63,.612,.198,0,.342-.027,.612-.108v.855c-.261,.081-.604,.126-.874,.126-.909,0-1.386-.432-1.386-1.26Z"/>
    </g>
    <path class="uuid-1c105d83-a743-4bdf-b34e-929c289752f1" d="M271.884,216.3c0-6.611-5.359-11.971-11.971-11.971-4.477,0-8.373,2.462-10.426,6.101-.503-.087-1.017-.142-1.544-.142-4.965,0-8.991,4.025-8.991,8.991s4.026,8.991,8.991,8.991h23.941c3.306,0,5.985-2.68,5.985-5.985s-2.68-5.985-5.985-5.985Z"/>
  </g>
  <g>
    <path class="uuid-be846ec0-0750-48b7-ae84-337f69cae02c" d="M239.94,184.079c0-1.836,1.449-3.25,3.322-3.25,1.008,0,2.008,.477,2.557,1.224l-1.044,.991c-.415-.559-.918-.837-1.513-.837-.981,0-1.719,.801-1.719,1.873s.738,1.873,1.719,1.873c.594,0,1.098-.279,1.513-.837l1.044,.99c-.549,.748-1.548,1.225-2.557,1.225-1.873,0-3.322-1.414-3.322-3.25Z"/>
    <path class="uuid-be846ec0-0750-48b7-ae84-337f69cae02c" d="M246.582,180.819l1.458-.225v6.635h-1.458v-6.41Z"/>
    <path class="uuid-be846ec0-0750-48b7-ae84-337f69cae02c" d="M249.138,185.717v-3.133h1.458v2.71c0,.522,.306,.864,.774,.864,.315,0,.567-.126,.774-.387v-3.187h1.458v4.646h-1.458v-.756c-.36,.541-.864,.829-1.467,.829-.9,0-1.54-.657-1.54-1.585Z"/>
    <path class="uuid-be846ec0-0750-48b7-ae84-337f69cae02c" d="M254.358,186.753l.639-.972c.667,.351,1.044,.468,1.495,.468,.414,0,.666-.144,.666-.378,0-.18-.135-.279-.432-.333l-.891-.162c-.9-.171-1.369-.63-1.369-1.351,0-.945,.729-1.512,1.945-1.512,.648,0,1.288,.18,1.891,.531l-.667,.927c-.468-.271-.9-.396-1.332-.396-.351,0-.558,.117-.558,.315,0,.189,.117,.27,.477,.333l.873,.162c.918,.171,1.396,.639,1.396,1.341,0,.909-.855,1.593-1.999,1.593-.846,0-1.594-.198-2.134-.567Z"/>
    <path class="uuid-be846ec0-0750-48b7-ae84-337f69cae02c" d="M259.857,185.825v-2.116h-.9v-1.125h.9v-1.287l1.458-.297v1.584h1.243v1.125h-1.243v1.828c0,.414,.162,.558,.612,.558,.171,0,.306-.018,.594-.099v1.179c-.27,.081-.702,.144-1,.144-1.098,0-1.666-.504-1.666-1.494Z"/>
    <path class="uuid-be846ec0-0750-48b7-ae84-337f69cae02c" d="M263.115,184.916c0-1.359,1.008-2.404,2.34-2.404,1.341,0,2.287,1.017,2.287,2.458v.315h-3.196c.135,.522,.558,.873,1.089,.873,.387,0,.711-.135,.918-.387l.963,.801c-.603,.531-1.17,.747-1.954,.747-1.368,0-2.448-1.053-2.448-2.403Zm3.277-.459c-.126-.495-.477-.81-.945-.81-.459,0-.783,.297-.9,.81h1.846Z"/>
    <path class="uuid-be846ec0-0750-48b7-ae84-337f69cae02c" d="M268.65,182.584h1.458v1.053c.297-.774,.711-1.143,1.261-1.143,.207,.009,.306,.027,.486,.117v1.251c-.18-.09-.432-.144-.684-.144-.432,0-.828,.225-1.062,.576v2.935h-1.458v-4.646Z"/>
    <path class="uuid-be846ec0-0750-48b7-ae84-337f69cae02c" d="M274.698,180.928h1.458l2.8,3.817-.027-3.817h1.458v6.302h-1.369l-2.89-3.943,.027,3.943h-1.458v-6.302Z"/>
    <path class="uuid-be846ec0-0750-48b7-ae84-337f69cae02c" d="M281.448,184.916c0-1.359,1.008-2.404,2.34-2.404,1.341,0,2.287,1.017,2.287,2.458v.315h-3.196c.135,.522,.558,.873,1.089,.873,.387,0,.711-.135,.918-.387l.963,.801c-.603,.531-1.17,.747-1.954,.747-1.368,0-2.448-1.053-2.448-2.403Zm3.277-.459c-.126-.495-.477-.81-.945-.81-.459,0-.783,.297-.9,.81h1.846Z"/>
    <path class="uuid-be846ec0-0750-48b7-ae84-337f69cae02c" d="M287.46,185.825v-2.116h-.9v-1.125h.9v-1.287l1.458-.297v1.584h1.243v1.125h-1.243v1.828c0,.414,.162,.558,.612,.558,.171,0,.306-.018,.594-.099v1.179c-.27,.081-.702,.144-1,.144-1.098,0-1.666-.504-1.666-1.494Z"/>
    <path class="uuid-be846ec0-0750-48b7-ae84-337f69cae02c" d="M290.637,182.584h1.377l.648,2.773,.783-2.773h1.198l.774,2.764,.639-2.764h1.342l-1.233,4.646h-1.387l-.756-2.737-.738,2.737h-1.405l-1.242-4.646Z"/>
    <path class="uuid-be846ec0-0750-48b7-ae84-337f69cae02c" d="M297.809,184.916c0-1.369,1.044-2.404,2.421-2.404s2.422,1.035,2.422,2.404-1.044,2.403-2.422,2.403-2.421-1.035-2.421-2.403Zm3.421,0c0-.693-.414-1.188-1-1.188s-.999,.495-.999,1.188,.414,1.188,.999,1.188,1-.495,1-1.188Z"/>
    <path class="uuid-be846ec0-0750-48b7-ae84-337f69cae02c" d="M303.578,182.584h1.458v1.053c.297-.774,.711-1.143,1.261-1.143,.207,.009,.306,.027,.486,.117v1.251c-.18-.09-.432-.144-.684-.144-.432,0-.828,.225-1.062,.576v2.935h-1.458v-4.646Z"/>
    <path class="uuid-be846ec0-0750-48b7-ae84-337f69cae02c" d="M307.557,180.793l1.458-.225v3.862l1.621-1.846h1.612l-1.891,2.08,2.025,2.566h-1.818l-1.549-2.053v2.053h-1.458v-6.437Z"/>
  </g>
  <g>
    <path class="uuid-b2e58eba-2830-451c-9a16-081b03e34a2f" d="M38.54,84.193l.792-1.143c.873,.612,1.422,.837,2.043,.837,.666,0,1.071-.271,1.071-.667,0-.369-.216-.549-.828-.657l-1.341-.234c-1-.171-1.548-.801-1.548-1.692,0-1.225,.936-1.99,2.502-1.99,.972,0,1.936,.315,2.584,.828l-.783,1.125c-.612-.468-1.215-.693-1.882-.693-.612,0-.963,.252-.963,.594,0,.324,.207,.486,.711,.576l1.26,.216c1.18,.198,1.801,.819,1.801,1.782,0,1.233-1.044,2.071-2.692,2.071-1,0-1.891-.333-2.728-.955Z"/>
    <path class="uuid-b2e58eba-2830-451c-9a16-081b03e34a2f" d="M45.308,83.644v-2.116h-.9v-1.125h.9v-1.287l1.458-.297v1.584h1.243v1.125h-1.243v1.828c0,.414,.162,.558,.612,.558,.171,0,.306-.018,.594-.099v1.179c-.27,.081-.702,.144-1,.144-1.098,0-1.666-.504-1.666-1.494Z"/>
    <path class="uuid-b2e58eba-2830-451c-9a16-081b03e34a2f" d="M48.782,83.536v-3.133h1.458v2.71c0,.522,.306,.864,.774,.864,.315,0,.567-.126,.774-.387v-3.187h1.458v4.646h-1.458v-.756c-.36,.54-.864,.828-1.467,.828-.9,0-1.54-.657-1.54-1.584Z"/>
    <path class="uuid-b2e58eba-2830-451c-9a16-081b03e34a2f" d="M54.173,82.717c0-1.306,.955-2.341,2.161-2.341,.486,0,.927,.198,1.242,.558v-2.295l1.458-.225v6.635h-1.44v-.603c-.306,.387-.819,.63-1.369,.63-1.143,0-2.053-1.053-2.053-2.358Zm3.403,.783v-1.566c-.225-.234-.531-.36-.864-.36-.639,0-1.107,.486-1.107,1.152,0,.657,.477,1.144,1.107,1.144,.351,0,.639-.126,.864-.369Z"/>
    <path class="uuid-b2e58eba-2830-451c-9a16-081b03e34a2f" d="M59.96,82.735c0-1.36,1.009-2.404,2.341-2.404,1.341,0,2.287,1.017,2.287,2.458v.315h-3.196c.135,.522,.558,.874,1.089,.874,.387,0,.711-.135,.918-.387l.963,.801c-.603,.531-1.17,.747-1.953,.747-1.369,0-2.449-1.053-2.449-2.403Zm3.277-.459c-.126-.495-.477-.81-.945-.81-.459,0-.783,.297-.9,.81h1.846Z"/>
    <path class="uuid-b2e58eba-2830-451c-9a16-081b03e34a2f" d="M65.495,80.403h1.458v.756c.36-.54,.864-.828,1.468-.828,.9,0,1.54,.657,1.54,1.584v3.133h-1.458v-2.71c0-.522-.306-.864-.774-.864-.315,0-.567,.126-.774,.387v3.187h-1.458v-4.646Z"/>
    <path class="uuid-b2e58eba-2830-451c-9a16-081b03e34a2f" d="M71.534,83.644v-2.116h-.9v-1.125h.9v-1.287l1.458-.297v1.584h1.243v1.125h-1.243v1.828c0,.414,.162,.558,.612,.558,.171,0,.306-.018,.594-.099v1.179c-.27,.081-.702,.144-1,.144-1.098,0-1.666-.504-1.666-1.494Z"/>
    <path class="uuid-b2e58eba-2830-451c-9a16-081b03e34a2f" d="M77.114,78.747h1.458l2.8,3.817-.027-3.817h1.458v6.302h-1.369l-2.89-3.943,.027,3.943h-1.458v-6.302Z"/>
    <path class="uuid-b2e58eba-2830-451c-9a16-081b03e34a2f" d="M83.864,82.735c0-1.36,1.008-2.404,2.34-2.404,1.341,0,2.287,1.017,2.287,2.458v.315h-3.196c.135,.522,.558,.874,1.089,.874,.387,0,.711-.135,.918-.387l.963,.801c-.603,.531-1.17,.747-1.954,.747-1.368,0-2.448-1.053-2.448-2.403Zm3.277-.459c-.126-.495-.477-.81-.945-.81-.459,0-.783,.297-.9,.81h1.846Z"/>
    <path class="uuid-b2e58eba-2830-451c-9a16-081b03e34a2f" d="M89.876,83.644v-2.116h-.9v-1.125h.9v-1.287l1.458-.297v1.584h1.243v1.125h-1.243v1.828c0,.414,.162,.558,.612,.558,.171,0,.306-.018,.594-.099v1.179c-.27,.081-.702,.144-1,.144-1.098,0-1.666-.504-1.666-1.494Z"/>
    <path class="uuid-b2e58eba-2830-451c-9a16-081b03e34a2f" d="M93.053,80.403h1.377l.648,2.773,.783-2.773h1.198l.774,2.764,.639-2.764h1.342l-1.233,4.646h-1.387l-.756-2.737-.738,2.737h-1.405l-1.242-4.646Z"/>
    <path class="uuid-b2e58eba-2830-451c-9a16-081b03e34a2f" d="M100.225,82.735c0-1.369,1.044-2.404,2.422-2.404s2.422,1.035,2.422,2.404-1.044,2.403-2.422,2.403-2.422-1.035-2.422-2.403Zm3.421,0c0-.693-.414-1.188-1-1.188s-.999,.495-.999,1.188,.414,1.188,.999,1.188,1-.495,1-1.188Z"/>
    <path class="uuid-b2e58eba-2830-451c-9a16-081b03e34a2f" d="M105.995,80.403h1.458v1.053c.297-.774,.711-1.143,1.261-1.143,.207,.009,.306,.027,.486,.117v1.251c-.18-.09-.432-.144-.684-.144-.432,0-.828,.225-1.062,.576v2.935h-1.458v-4.646Z"/>
    <path class="uuid-b2e58eba-2830-451c-9a16-081b03e34a2f" d="M109.973,78.611l1.458-.225v3.862l1.621-1.846h1.612l-1.891,2.08,2.025,2.566h-1.818l-1.549-2.053v2.053h-1.458v-6.437Z"/>
  </g>
  <g>
    <path class="uuid-ab7eaacb-d310-450e-9153-5b174c8580c3" d="M38.774,184.079c0-1.836,1.449-3.25,3.322-3.25,1.008,0,2.008,.478,2.557,1.225l-1.044,.99c-.414-.558-.918-.837-1.513-.837-.981,0-1.719,.801-1.719,1.872s.738,1.873,1.719,1.873c.594,0,1.099-.279,1.513-.837l1.044,.99c-.549,.747-1.548,1.224-2.557,1.224-1.873,0-3.322-1.413-3.322-3.25Z"/>
    <path class="uuid-ab7eaacb-d310-450e-9153-5b174c8580c3" d="M45.416,180.82l1.458-.225v6.635h-1.458v-6.41Z"/>
    <path class="uuid-ab7eaacb-d310-450e-9153-5b174c8580c3" d="M47.791,185.898c0-.855,.666-1.351,1.81-1.351,.333,0,.666,.062,1.081,.216v-.378c0-.45-.297-.676-.918-.676-.351,0-.765,.1-1.306,.324l-.504-1.017c.765-.343,1.449-.505,2.134-.505,1.287,0,2.035,.64,2.035,1.747v2.971h-1.44v-.405c-.405,.342-.792,.478-1.288,.478-.945,0-1.603-.576-1.603-1.404Zm2.053,.44c.306,0,.585-.081,.837-.233v-.595c-.271-.062-.531-.099-.801-.099-.478,0-.748,.162-.748,.459s.261,.468,.711,.468Z"/>
    <path class="uuid-ab7eaacb-d310-450e-9153-5b174c8580c3" d="M52.84,186.753l.639-.972c.667,.351,1.044,.468,1.495,.468,.414,0,.666-.144,.666-.378,0-.18-.135-.279-.432-.333l-.891-.162c-.9-.171-1.369-.63-1.369-1.351,0-.945,.729-1.513,1.945-1.513,.648,0,1.288,.181,1.891,.531l-.667,.928c-.468-.271-.9-.396-1.332-.396-.351,0-.558,.117-.558,.315,0,.188,.117,.27,.477,.333l.873,.162c.918,.171,1.396,.639,1.396,1.341,0,.91-.855,1.594-1.999,1.594-.846,0-1.594-.198-2.134-.567Z"/>
    <path class="uuid-ab7eaacb-d310-450e-9153-5b174c8580c3" d="M57.439,186.753l.639-.972c.667,.351,1.044,.468,1.495,.468,.414,0,.666-.144,.666-.378,0-.18-.135-.279-.432-.333l-.891-.162c-.9-.171-1.369-.63-1.369-1.351,0-.945,.729-1.513,1.945-1.513,.648,0,1.287,.181,1.891,.531l-.667,.928c-.468-.271-.9-.396-1.332-.396-.351,0-.558,.117-.558,.315,0,.188,.117,.27,.477,.333l.873,.162c.918,.171,1.396,.639,1.396,1.341,0,.91-.855,1.594-1.999,1.594-.846,0-1.594-.198-2.134-.567Z"/>
    <path class="uuid-ab7eaacb-d310-450e-9153-5b174c8580c3" d="M62.416,182.585h1.458v1.054c.297-.774,.711-1.144,1.261-1.144,.207,.009,.306,.027,.486,.117v1.251c-.18-.09-.432-.144-.684-.144-.432,0-.828,.225-1.062,.576v2.935h-1.458v-4.646Z"/>
    <path class="uuid-ab7eaacb-d310-450e-9153-5b174c8580c3" d="M66.052,184.917c0-1.368,1.044-2.404,2.422-2.404s2.422,1.036,2.422,2.404-1.044,2.403-2.422,2.403-2.422-1.035-2.422-2.403Zm3.421,0c0-.693-.414-1.188-1-1.188s-.999,.495-.999,1.188,.414,1.188,.999,1.188,1-.495,1-1.188Z"/>
    <path class="uuid-ab7eaacb-d310-450e-9153-5b174c8580c3" d="M71.614,184.917c0-1.368,1.044-2.404,2.421-2.404s2.422,1.036,2.422,2.404-1.044,2.403-2.422,2.403-2.421-1.035-2.421-2.403Zm3.421,0c0-.693-.414-1.188-1-1.188s-.999,.495-.999,1.188,.414,1.188,.999,1.188,1-.495,1-1.188Z"/>
    <path class="uuid-ab7eaacb-d310-450e-9153-5b174c8580c3" d="M77.383,182.585h1.458v.738c.342-.531,.811-.811,1.377-.811,.604,0,1.081,.333,1.306,.864,.36-.558,.882-.864,1.521-.864,.855,0,1.458,.676,1.458,1.63v3.088h-1.458v-2.8c0-.468-.279-.774-.693-.774-.27,0-.486,.108-.675,.352v3.223h-1.458v-2.8c0-.468-.279-.774-.693-.774-.27,0-.495,.117-.685,.36v3.214h-1.458v-4.646Z"/>
    <path class="uuid-ab7eaacb-d310-450e-9153-5b174c8580c3" d="M87.67,180.928h1.458l2.8,3.817-.027-3.817h1.458v6.302h-1.369l-2.89-3.943,.027,3.943h-1.458v-6.302Z"/>
    <path class="uuid-ab7eaacb-d310-450e-9153-5b174c8580c3" d="M94.42,184.917c0-1.359,1.009-2.404,2.341-2.404,1.341,0,2.287,1.018,2.287,2.458v.315h-3.196c.135,.521,.558,.873,1.089,.873,.387,0,.711-.135,.918-.387l.963,.801c-.603,.531-1.17,.747-1.953,.747-1.369,0-2.449-1.053-2.449-2.403Zm3.277-.459c-.126-.495-.477-.811-.945-.811-.459,0-.783,.297-.9,.811h1.846Z"/>
    <path class="uuid-ab7eaacb-d310-450e-9153-5b174c8580c3" d="M100.432,185.826v-2.116h-.9v-1.125h.9v-1.287l1.458-.297v1.584h1.243v1.125h-1.243v1.828c0,.414,.162,.558,.612,.558,.171,0,.306-.018,.594-.099v1.18c-.27,.081-.702,.144-1,.144-1.098,0-1.666-.504-1.666-1.494Z"/>
    <path class="uuid-ab7eaacb-d310-450e-9153-5b174c8580c3" d="M103.609,182.585h1.377l.648,2.773,.784-2.773h1.197l.774,2.764,.639-2.764h1.342l-1.233,4.646h-1.387l-.756-2.737-.738,2.737h-1.405l-1.242-4.646Z"/>
    <path class="uuid-ab7eaacb-d310-450e-9153-5b174c8580c3" d="M110.782,184.917c0-1.368,1.044-2.404,2.421-2.404s2.422,1.036,2.422,2.404-1.044,2.403-2.422,2.403-2.421-1.035-2.421-2.403Zm3.421,0c0-.693-.414-1.188-1-1.188s-.999,.495-.999,1.188,.414,1.188,.999,1.188,1-.495,1-1.188Z"/>
    <path class="uuid-ab7eaacb-d310-450e-9153-5b174c8580c3" d="M116.551,182.585h1.458v1.054c.297-.774,.711-1.144,1.261-1.144,.207,.009,.306,.027,.486,.117v1.251c-.18-.09-.432-.144-.684-.144-.432,0-.828,.225-1.062,.576v2.935h-1.458v-4.646Z"/>
    <path class="uuid-ab7eaacb-d310-450e-9153-5b174c8580c3" d="M120.529,180.794l1.458-.226v3.862l1.621-1.846h1.611l-1.89,2.08,2.025,2.565h-1.818l-1.549-2.053v2.053h-1.458v-6.437Z"/>
  </g>
  <rect class="uuid-b04140e6-148e-473e-a3e3-6c612e1c9a2f" x="364.969" y="63.892" width="145.334" height="34.057"/>
  <g>
    <path d="M398.856,74.786c0-1.836,1.449-3.25,3.322-3.25,1.008,0,2.008,.477,2.557,1.224l-1.044,.991c-.415-.559-.919-.837-1.513-.837-.981,0-1.72,.801-1.72,1.873s.738,1.873,1.72,1.873c.594,0,1.098-.279,1.513-.837l1.044,.99c-.549,.748-1.549,1.225-2.557,1.225-1.873,0-3.322-1.414-3.322-3.25Z"/>
    <path d="M405.156,75.624c0-1.369,1.044-2.404,2.422-2.404s2.422,1.035,2.422,2.404-1.045,2.403-2.422,2.403-2.422-1.035-2.422-2.403Zm3.421,0c0-.693-.414-1.188-.999-1.188s-.999,.495-.999,1.188,.414,1.188,.999,1.188,.999-.495,.999-1.188Z"/>
    <path d="M410.925,73.292h1.458v.756c.36-.54,.864-.828,1.468-.828,.899,0,1.539,.657,1.539,1.584v3.133h-1.458v-2.71c0-.522-.307-.864-.774-.864-.315,0-.567,.126-.774,.387v3.187h-1.458v-4.646Z"/>
    <path d="M416.964,76.533v-2.116h-.9v-1.125h.9v-1.287l1.458-.297v1.584h1.243v1.125h-1.243v1.828c0,.414,.162,.558,.612,.558,.171,0,.307-.018,.595-.099v1.179c-.271,.081-.702,.144-1,.144-1.098,0-1.665-.504-1.665-1.494Z"/>
    <path d="M420.474,73.292h1.458v1.053c.297-.774,.711-1.143,1.261-1.143,.207,.009,.306,.027,.485,.117v1.251c-.18-.09-.432-.144-.684-.144-.433,0-.828,.225-1.062,.576v2.935h-1.458v-4.646Z"/>
    <path d="M424.11,75.624c0-1.369,1.044-2.404,2.422-2.404s2.422,1.035,2.422,2.404-1.045,2.403-2.422,2.403-2.422-1.035-2.422-2.403Zm3.421,0c0-.693-.414-1.188-.999-1.188s-.999,.495-.999,1.188,.414,1.188,.999,1.188,.999-.495,.999-1.188Z"/>
    <path d="M429.878,71.527l1.458-.225v6.635h-1.458v-6.41Z"/>
    <path d="M434.406,73.292h1.44v.648c.306-.414,.819-.675,1.377-.675,1.144,0,2.053,1.053,2.053,2.359s-.954,2.34-2.16,2.34c-.504,0-.945-.189-1.252-.54v2.395h-1.458v-6.527Zm3.439,2.323c0-.657-.478-1.143-1.107-1.143-.36,0-.64,.126-.874,.378v1.548c.226,.234,.531,.369,.874,.369,.639,0,1.107-.486,1.107-1.152Z"/>
    <path d="M440.202,71.527l1.458-.225v6.635h-1.458v-6.41Z"/>
    <path d="M442.578,76.605c0-.855,.666-1.35,1.81-1.35,.333,0,.666,.063,1.08,.216v-.378c0-.45-.297-.675-.918-.675-.352,0-.766,.099-1.306,.324l-.504-1.018c.765-.342,1.449-.504,2.134-.504,1.287,0,2.034,.639,2.034,1.747v2.971h-1.44v-.405c-.405,.342-.792,.477-1.287,.477-.945,0-1.603-.576-1.603-1.404Zm2.053,.441c.306,0,.585-.081,.837-.234v-.594c-.271-.063-.531-.099-.801-.099-.478,0-.748,.162-.748,.459s.262,.468,.712,.468Z"/>
    <path d="M448.004,73.292h1.458v.756c.36-.54,.864-.828,1.468-.828,.9,0,1.54,.657,1.54,1.584v3.133h-1.459v-2.71c0-.522-.306-.864-.774-.864-.314,0-.567,.126-.774,.387v3.187h-1.458v-4.646Z"/>
    <path d="M453.359,75.624c0-1.36,1.009-2.404,2.341-2.404,1.342,0,2.287,1.017,2.287,2.458v.315h-3.196c.136,.522,.559,.874,1.09,.874,.387,0,.711-.135,.918-.387l.963,.801c-.603,.531-1.17,.747-1.953,.747-1.368,0-2.449-1.053-2.449-2.403Zm3.277-.459c-.126-.495-.477-.81-.945-.81-.459,0-.783,.297-.9,.81h1.846Z"/>
    <path d="M460.614,76.605c0-.855,.666-1.35,1.81-1.35,.333,0,.666,.063,1.08,.216v-.378c0-.45-.297-.675-.918-.675-.352,0-.766,.099-1.306,.324l-.504-1.018c.765-.342,1.449-.504,2.134-.504,1.287,0,2.034,.639,2.034,1.747v2.971h-1.44v-.405c-.405,.342-.792,.477-1.287,.477-.945,0-1.603-.576-1.603-1.404Zm2.053,.441c.306,0,.585-.081,.837-.234v-.594c-.271-.063-.531-.099-.801-.099-.478,0-.748,.162-.748,.459s.262,.468,.712,.468Z"/>
    <path d="M466.04,73.292h1.458v.756c.36-.54,.864-.828,1.468-.828,.9,0,1.54,.657,1.54,1.584v3.133h-1.459v-2.71c0-.522-.306-.864-.774-.864-.314,0-.567,.126-.774,.387v3.187h-1.458v-4.646Z"/>
    <path d="M471.395,75.606c0-1.306,.954-2.341,2.16-2.341,.486,0,.928,.198,1.243,.558v-2.295l1.458-.225v6.635h-1.44v-.603c-.306,.387-.819,.63-1.368,.63-1.144,0-2.053-1.053-2.053-2.358Zm3.403,.783v-1.566c-.226-.234-.531-.36-.864-.36-.64,0-1.107,.486-1.107,1.152,0,.657,.477,1.144,1.107,1.144,.351,0,.639-.126,.864-.369Z"/>
    <path d="M405.511,85.586c0-1.836,1.449-3.25,3.322-3.25,1.008,0,2.008,.477,2.557,1.224l-1.044,.991c-.415-.559-.919-.837-1.513-.837-.981,0-1.72,.801-1.72,1.873s.738,1.873,1.72,1.873c.594,0,1.098-.279,1.513-.837l1.044,.99c-.549,.748-1.549,1.225-2.557,1.225-1.873,0-3.322-1.414-3.322-3.25Z"/>
    <path d="M411.811,86.423c0-1.369,1.044-2.404,2.422-2.404s2.422,1.035,2.422,2.404-1.045,2.403-2.422,2.403-2.422-1.035-2.422-2.403Zm3.421,0c0-.693-.414-1.188-.999-1.188s-.999,.495-.999,1.188,.414,1.188,.999,1.188,.999-.495,.999-1.188Z"/>
    <path d="M417.58,84.091h1.458v.738c.342-.531,.811-.81,1.377-.81,.604,0,1.081,.333,1.306,.864,.36-.558,.883-.864,1.521-.864,.855,0,1.459,.675,1.459,1.629v3.088h-1.459v-2.8c0-.468-.279-.774-.693-.774-.27,0-.486,.108-.675,.351v3.223h-1.459v-2.8c0-.468-.278-.774-.692-.774-.271,0-.495,.117-.685,.36v3.214h-1.458v-4.646Z"/>
    <path d="M425.797,84.091h1.44v.648c.306-.414,.819-.675,1.377-.675,1.144,0,2.053,1.053,2.053,2.359s-.954,2.34-2.16,2.34c-.504,0-.945-.189-1.252-.54v2.395h-1.458v-6.527Zm3.439,2.323c0-.657-.478-1.143-1.107-1.143-.36,0-.64,.126-.874,.378v1.548c.226,.234,.531,.369,.874,.369,.639,0,1.107-.486,1.107-1.152Z"/>
    <path d="M431.557,87.225v-3.133h1.459v2.71c0,.522,.306,.864,.773,.864,.315,0,.567-.126,.774-.387v-3.187h1.459v4.646h-1.459v-.756c-.36,.54-.864,.828-1.467,.828-.9,0-1.54-.657-1.54-1.584Z"/>
    <path d="M437.767,87.333v-2.116h-.899v-1.125h.899v-1.287l1.459-.297v1.584h1.242v1.125h-1.242v1.828c0,.414,.162,.558,.612,.558,.171,0,.306-.018,.594-.099v1.179c-.27,.081-.702,.144-.999,.144-1.099,0-1.666-.504-1.666-1.494Z"/>
    <path d="M441.025,86.423c0-1.36,1.008-2.404,2.341-2.404,1.341,0,2.286,1.017,2.286,2.458v.315h-3.195c.135,.522,.558,.874,1.089,.874,.388,0,.712-.135,.919-.387l.963,.801c-.604,.531-1.17,.747-1.954,.747-1.368,0-2.448-1.053-2.448-2.403Zm3.277-.459c-.126-.495-.478-.81-.945-.81-.46,0-.783,.297-.9,.81h1.846Z"/>
    <path d="M448.495,84.091h1.458v.756c.36-.54,.864-.828,1.468-.828,.899,0,1.539,.657,1.539,1.584v3.133h-1.458v-2.71c0-.522-.307-.864-.774-.864-.315,0-.567,.126-.774,.387v3.187h-1.458v-4.646Z"/>
    <path d="M453.85,86.423c0-1.369,1.044-2.404,2.422-2.404s2.422,1.035,2.422,2.404-1.045,2.403-2.422,2.403-2.422-1.035-2.422-2.403Zm3.421,0c0-.693-.414-1.188-.999-1.188s-.999,.495-.999,1.188,.414,1.188,.999,1.188,.999-.495,.999-1.188Z"/>
    <path d="M459.411,86.405c0-1.306,.955-2.341,2.161-2.341,.486,0,.928,.198,1.242,.558v-2.295l1.459-.225v6.635h-1.44v-.603c-.307,.387-.819,.63-1.369,.63-1.143,0-2.053-1.053-2.053-2.358Zm3.403,.783v-1.566c-.225-.234-.531-.36-.864-.36-.639,0-1.107,.486-1.107,1.152,0,.657,.478,1.144,1.107,1.144,.352,0,.64-.126,.864-.369Z"/>
    <path d="M465.199,86.423c0-1.36,1.008-2.404,2.341-2.404,1.341,0,2.286,1.017,2.286,2.458v.315h-3.195c.135,.522,.558,.874,1.089,.874,.388,0,.712-.135,.919-.387l.963,.801c-.604,.531-1.17,.747-1.954,.747-1.368,0-2.448-1.053-2.448-2.403Zm3.277-.459c-.126-.495-.478-.81-.945-.81-.46,0-.783,.297-.9,.81h1.846Z"/>
  </g>
  <g>
    <path d="M68.947,24.813l-8.801-4.894c-.127-.067-.279-.067-.406,0l-8.801,4.894c-.204,.111-.279,.365-.169,.569,.039,.071,.097,.13,.169,.169l2.491,1.354v3.541c-.002,.155,.081,.298,.217,.372l6.093,3.385c.128,.063,.278,.063,.406,0l6.093-3.385c.135-.075,.218-.218,.217-.372v-3.513l2.491-1.354c.204-.111,.279-.365,.169-.569-.039-.071-.097-.13-.169-.169v-.027Zm-3.331,5.416l-5.673,3.121-5.673-3.155v-2.789l5.47,3.04c.126,.073,.281,.073,.406,0l5.47-3.033v2.816Zm-5.673-.643l-7.927-4.407,7.927-4.407,3.419,1.902-3.622,2.031c-.204,.112-.278,.368-.166,.572,.112,.204,.368,.278,.572,.166l4.062-2.268,3.635,2.031-7.9,4.38Z"/>
    <path d="M68.067,27.994c-.232,0-.42,.188-.42,.42h0v4.062c0,.232,.188,.42,.42,.419,.232,0,.419-.188,.419-.419v-4.062c0-.232-.188-.42-.42-.42Z"/>
    <circle cx="68.067" cy="27.06" r=".42"/>
  </g>
</svg>